/* XPM */
static char *_b6e3c1732354b65f344419e931eaece[] = {
/* columns rows colors chars-per-pixel */
"32 32 67 1 ",
"  c #C70010",
". c #C70013",
"X c #C70015",
"o c #C90011",
"O c #C80015",
"+ c #CA0015",
"@ c #C80016",
"# c #C90016",
"$ c #C80017",
"% c #CA0628",
"& c #CB0728",
"* c #CA0D29",
"= c #CA0E29",
"- c #CB0B2C",
"; c #CC0D2D",
": c #C9122F",
"> c #C51230",
", c #C51331",
"< c #C61231",
"1 c #C61331",
"2 c #C91230",
"3 c #C81231",
"4 c #CA1230",
"5 c #CA1331",
"6 c #CA1332",
"7 c #CB1333",
"8 c #CC1332",
"9 c #CD1332",
"0 c #C81432",
"q c #C91432",
"w c #CA1432",
"e c #CB1432",
"r c #CA1433",
"t c #CB1433",
"y c #CC1432",
"u c #CC1433",
"i c #CD1433",
"p c #CE1433",
"a c #CE1533",
"s c #CA1434",
"d c #CC1434",
"f c #CD1434",
"g c #CD1534",
"h c #CE1434",
"j c #CF1434",
"k c #CE1534",
"l c #CF1535",
"z c #CC1736",
"x c #CF1737",
"c c #CD1738",
"v c #D01536",
"b c #D51637",
"n c #CF2944",
"m c #CF2B47",
"M c #D77687",
"N c #D77989",
"B c #DC98A4",
"V c #DC99A4",
"C c #E5E6E5",
"Z c #E6E7E7",
"A c #EAFDFD",
"S c #E9FEFD",
"D c #EAFFFF",
"F c #EBFFFF",
"G c #ECFFFF",
"H c azure",
"J c None",
/* pixels */
"JJJJJJJJJJJJJJJJJJJJJJJJJJJJJJJJ",
"JJJJJJJJJJJJJJJJJJJJJJJJJJJJJJJJ",
"JJJJJJJJJJJJJJJJJJJJJJJJJJJJJJJJ",
"JJJJJJJJJJJJJJJJJJJJJJJJJJJJJJJJ",
"JJJJJJJJJJJJJJJJJJJJJJJJJJJJJJJJ",
"JJJJJJJJJJJJJJJJJJJJJJJJJJJJJJJJ",
"JJJJJJJJJJJJJJJJJJJJJJJJJJJJJJJJ",
"JJJJJJJJJJJJJJJ5JJJJJJJJJJJJJJJJ",
"JJJJJJJJJJJJJJJvJJtJJJJJJJJJJJJJ",
"JJJJJJJJJJJJJJuht5tJJJJJJJJJJJJJ",
"JJJJJJJJJJJJJJuutth5JJJJJJJJJJJJ",
"JJJJJJJJJJJJJ5uutuutJJJJJJJJJJJJ",
"JJJJJJJJJJJt1tuuuuutJJJJJJJJJJJJ",
"JJJJJJJJJJJutuuuuuuJ:5JJJJJJJJJJ",
"JJJJJJJJJJJuuuuuuuutsJJJJJJJJJJJ",
"JJJJJJJJJJJuuuuuuuuuhJJJJJJJJJJJ",
"Jh;+@+@@@&cuuuuuuuuuuc& $++@$-cJ",
"JJJJJJJJJn=u8uutuuutt=nJJJJJJJJJ",
"JJJJFFFFHBoJJJ5hu8JJJ BHFFFFJJJJ",
"JJJJJJJJJJ+1JJJuhJJJ5+JJJJJJJJJJ",
"JJJJJJJZFN+uuuuJJhuuu+MFZJJJJJJJ",
"JJJJJJJJFJJJvuj51huuJJJFJJJJJJJJ",
"JJJJJJJJJJJJJtuhuttJJJJJJJJJJJJJ",
"JJJJJJJJJJJJJJbtuuJJJJJJJJJJJJJJ",
"JJJJJJJJJJJJJJ5hutJJJJJJJJJJJJJJ",
"JJJJJJJJJJJJJJJJJJJJJJJJJJJJJJJJ",
"JJJJJJJJJJJJJJJJJJJJJJJJJJJJJJJJ",
"JJJJJJJJJJJJJJJJJJJJJJJJJJJJJJJJ",
"JJJJJJJJJJJJJJJJJJJJJJJJJJJJJJJJ",
"JJJJJJJJJJJJJJJJJJJJJJJJJJJJJJJJ",
"JJJJJJJJJJJJJJJJJJJJJJJJJJJJJJJJ",
"JJJJJJJJJJJJJJJJJJJJJJJJJJJJJJJJ"
};
