/* XPM */
static char *bitcoin32_xpm[] = {
/* width height num_colors chars_per_pixel */
"    32    32      256            2",
/* colors */
"`` c #4c5aa4",
"`. c #5caec4",
"`# c #b4badc",
"`a c #74d69c",
"`b c #448acc",
"`c c #8caecc",
"`d c #acdecc",
"`e c #8c96cc",
"`f c #84e69c",
"`g c #dceafc",
"`h c #4c9acc",
"`i c #84c6c4",
"`j c #64c2c4",
"`k c #94d2c4",
"`l c #aceebc",
"`m c #74b6bc",
"`n c #6c86c4",
"`o c #749ec4",
"`p c #9cc6e4",
"`q c #7cde9c",
"`r c #dcf6e4",
"`s c #ccdef4",
"`t c #9ceaac",
"`u c #446ea4",
"`v c #accee4",
"`w c #8cc6ec",
"`x c #84d2bc",
"`y c #a4aee4",
"`z c #ace6c4",
"`A c #74aedc",
"`B c #f4f6fc",
"`C c #bcd6ec",
"`D c #64babc",
"`E c #448ecc",
"`F c #84bedc",
"`G c #84ee94",
"`H c #94deb4",
"`I c #c4f2cc",
"`J c #64a6d4",
"`K c #5ca6c4",
"`L c #6492d4",
"`M c #94a6d4",
"`N c #6c7ec4",
"`O c #bce6d4",
"`P c #5ca2cc",
"`Q c #94c6dc",
"`R c #ecfaec",
"`S c #acd6e4",
"`T c #7cd2bc",
"`U c #74ceac",
"`V c #6cbecc",
"`W c #9ccafc",
"`X c #4c7aac",
"`Y c #5496d4",
"`Z c #ccf6d4",
"`0 c #4c6aac",
"`1 c #64b6bc",
"`2 c #7cdaa4",
"`3 c #7ca2c4",
"`4 c #94e6ac",
"`5 c #e4eef4",
"`6 c #6c8acc",
"`7 c #6c9adc",
"`8 c #8cdeac",
".` c #9ceea4",
".. c #94c2f4",
".# c #84daa4",
".a c #4c96cc",
".b c #8cbee4",
".c c #a4decc",
".d c #4c5eac",
".e c #5cb6cc",
".f c #7cd69c",
".g c #94b2d4",
".h c #54a2cc",
".i c #8cc6c4",
".j c #a4d6d4",
".k c #e4f6e4",
".l c #4c76ac",
".m c #b4eac4",
".n c #7cb2f4",
".o c #64bacc",
".p c #94ee9c",
".q c #74aadc",
".r c #6ca2dc",
".s c #5456ac",
".t c #5482bc",
".u c #84b6dc",
".v c #b4dedc",
".w c #8ce6a4",
".x c #549ad4",
".y c #6ccaac",
".z c #bceecc",
".A c #7482bc",
".B c #9ccedc",
".C c #84e29c",
".D c #cce6ec",
".E c #4c6eac",
".F c #b4cef4",
".G c #7caedc",
".H c #f4fefc",
".I c #c4daf4",
".J c #4c8ed4",
".K c #9ce2b4",
".L c #cceedc",
".M c #748ecc",
".N c #bceadc",
".O c #b4dadc",
".P c #7cbac4",
".Q c #8ca6c4",
".R c #94c6f4",
".S c #94baec",
".T c #54b2d4",
".U c #accaec",
".V c #74d2ac",
".W c #84aee4",
".X c #84ea94",
".Y c #eceaf4",
".Z c #84cac4",
".0 c #6cc2b4",
".1 c #94dabc",
".2 c #74b2d4",
".3 c #dcfadc",
".4 c #a4e6bc",
".5 c #8cd6bc",
".6 c #bcdaec",
".7 c #64beb4",
".8 c #8cee94",
"#` c #64aad4",
"#. c #9cbeec",
"## c #7caae4",
"#a c #a4aad4",
"#b c #6496d4",
"#c c #74cac4",
"#d c #849ed4",
"#e c #5c8ac4",
"#f c #8cdabc",
"#g c #8cbacc",
"#h c #6c8ec4",
"#i c #d4f6dc",
"#j c #b4c2e4",
"#k c #94cedc",
"#l c #bcf6c4",
"#m c #4c8adc",
"#n c #9cd2d4",
"#o c #a4eeb4",
"#p c #e4e6f4",
"#q c #94c2e4",
"#r c #a4c6f4",
"#s c #ecf2fc",
"#t c #d4e6f4",
"#u c #b4f2bc",
"#v c #5c9edc",
"#w c #ecf6fc",
"#x c #8cbaf4",
"#y c #b4e6d4",
"#z c #74a6ec",
"#A c #7486cc",
"#B c #8cb2e4",
"#C c #7cb6c4",
"#D c #a4cee4",
"#E c #748acc",
"#F c #6ca2ec",
"#G c #fcfefc",
"#H c #7ccac4",
"#I c #5cb2bc",
"#J c #9ccadc",
"#K c #94aacc",
"#L c #bceacc",
"#M c #94cad4",
"#N c #acdadc",
"#O c #ccfacc",
"#P c #94eaa4",
"#Q c #6c9ee4",
"#R c #a4e2c4",
"#S c #8ccabc",
"#T c #549ecc",
"#U c #b4d2ec",
"#V c #ccf2d4",
"#W c #7cbebc",
"#X c #8caacc",
"#Y c #a4eab4",
"#Z c #a4cafc",
"#0 c #ace2cc",
"#1 c #4472a4",
"#2 c #84d6bc",
"#3 c #aceac4",
"#4 c #f4fafc",
"#5 c #4492cc",
"#6 c #94e2b4",
"#7 c #5caac4",
"#8 c #4c7eac",
"a` c #e4f2f4",
"a. c #8ce2ac",
"a# c #a4dad4",
"aa c #545aac",
"ab c #b4e2dc",
"ac c #4c72ac",
"ad c #7cb2dc",
"ae c #4c92d4",
"af c #6cc6b4",
"ag c #8cf294",
"ah c #d4eaf4",
"ai c #5ca2dc",
"aj c #8cbef4",
"ak c #4c5aac",
"al c #74d6a4",
"am c #6c86cc",
"an c #7cdea4",
"ao c #acceec",
"ap c #74aee4",
"aq c #bcd6f4",
"ar c #64a6dc",
"as c #6c7ecc",
"at c #ecfaf4",
"au c #6c9ae4",
"av c #9ceeac",
"aw c #94c2fc",
"ax c #84daac",
"ay c #4c96d4",
"az c #5cb6d4",
"aA c #7cd6a4",
"aB c #e4f6ec",
"aC c #b4eacc",
"aD c #64bad4",
"aE c #94eea4",
"aF c #84e2a4",
"aG c #9ce2bc",
"aH c #b4dae4",
"aI c #94c6fc",
"aJ c #84ea9c",
"aK c #84cacc",
"aL c #dcfae4",
"aM c #64bebc",
"aN c #bcead4",
"aO c #549ed4",
"aP c #ccf2dc",
"aQ c #7cbec4",
"aR c #000000",
"aS c #000000",
"aT c #000000",
"aU c #000000",
"aV c #000000",
"aW c #000000",
"aX c #000000",
"aY c #000000",
"aZ c #000000",
"a0 c #000000",
"a1 c #000000",
"a2 c #000000",
"a3 c #000000",
"a4 c #000000",
"a5 c #000000",
"a6 c #000000",
"a7 c #000000",
"a8 c #000000",
/* pixels */
"#G#G#G#G#G#G#G#G#G#G#G#G#G#G#GaL.3#G#G#G#G#G#G#G#G#G#G#G#G#G#G#G",
"#G#G#G#G#G#G#G#G#G#G#G#G#G#G#Oagag#l#G#G#G#G#G#G#G#G#G#G#G#G#G#G",
"#G#G#G#G#G#G#G#G#G#G#G#G.3.p.8aE.``G.8`Z#G#G#G#G#G#G#G#G#G#G#G#G",
"#G#G#G#G#G#G#G#G#G#G`Rav.XaJ#u#G#G`IaJaJ#PaL#G#G#G#G#G#G#G#G#G#G",
"#G#G#G#G#G#G#G#G#G`l`f`f`tat#G#G#G#G#G#o`f`f#Y#G#G#G#G#G#G#G#G#G",
"#G#G#G#G#G#G#G#V.C.CaF#i#G#G#G#G#G#G#G#G`r.w.C.C.z#G#G#G#G#G#G#G",
"#G#G#G#G#G`ra.`q`q.z#G#G#G#G#G#G#G#G#G#G#G#GaPan`qaFaP#G#G#G#G#G",
"#G#G#Gat#6`2`2#3.H#G#G#G#G#G#G#G#G#G#G#G#G#G#G#G.z`2`2`8aB#G#G#G",
"#G#GaN`2`2axaB#G#G#G#G#G#G#G#G`##j#G#G#G#G#G#G#G#GataG`2`2aC#G#G",
"#G#G`zal`z#G#G#G#G#G#G#G#G.Y.A.d`n#d#p#G#G#G#G#G#G#G#G`HaA`z#G#G",
"#G#G#0.VaN#G#G#G#G#G#G`B`e.dak.d`n.M#E`M#s#G#G#G#G.L`2.faA`z#G#G",
"#G#G#0`U`O#G#G#G#G#G#a.d.d.dak.d`n.M#E#E#E`y#G.k`8aAaAaAaA`z#G#G",
"#G#G`d.y#y#G#G#G#G#K.daaak.dak.d`n.M#E`6asam#g`4`a`aaAaAaA`z#G#G",
"#G#G.cafab#G#G#G#G`c`X.E.d.sak.d`n.Masam`3.P`k.z.4.#`a`aaA`z#G#G",
"#G#Ga#.0ab#G#G#G#G#X.l#8.l`0akaa`N#A`o.P.Z.P.i.m#LaCaG`2`a`z#G#G",
"#G#Ga#.7.v#G#G#G#G#X.l.l`X#8`u``#h#C.Z`iaQ#C.i.m`z`z#LaC.KaC#G#G",
"#G#G.jaM.v#G#G#G#G#X.l.l.l`u`X`L`waK#WaQaQ#C.i.m`z`zaC#L#0.N#G#G",
"#G#G.j`D.O#G#G#G#G#X.l`uac#e#Q#zawaI.baQ#W#C.i.maCaC#R#f`T#y#G#G",
"#G#G#n`1.O#G#G#G#G.Q#1.t`7#z#Q#QajaIaw..`F`m#S.z`z.1`T`x.5#y#G#G",
"#G#G.B#I#N#G#G#G#G.g#b#z#F#Qau#Qaj.R..awawaI#M.4#f`T#2#2#2#y#G#G",
"#G#G.B`.`S#G#G#G#G#4#r#Q#Q#Qau#Qaj....`W`W.nai`j#2`H#f#2#2#y#G#G",
"#G#G.B#7`S#G#G#G#G#G#G#s#B#Qau#Qaj`W#Z#xai`b`hazaz#c#f`H.5#y#G#G",
"#G#G`Q`K#J#G#G#G#G#G#G#G#G`g###Q`W..ar#5#5aeaO.o.e.T.o#H#faN#G#G",
"#G#G#D.h.h.2a`#G#G#G#G#G#G#G#G.Iap.a`E.a.xaeaO.o.e.oaz.T`Vab#G#G",
"#G#G#Gah#`#T.h`v#G#G#G#G#G#G#G#G#4.u.x`Y`YaeaO.o.e.e.eaD.D#G#G#G",
"#G#G#G#G#G.6`P#T#T.6#G#G#G#G#G#G#G#G`5.G`YaeaO.o.e.eaH#G#G#G#G#G",
"#G#G#G#G#G#G#G`p`Y.x`J#t#G#G#G#G#G#G#G#G`paeaO.o#k#4#G#G#G#G#G#G",
"#G#G#G#G#G#G#G#G#4adayayad`B#G#G#G#G#G#qayae`A#w#G#G#G#G#G#G#G#G",
"#G#G#G#G#G#G#G#G#G#G`s#vaeae.U#G#G`C`Yae`Y#U#G#G#G#G#G#G#G#G#G#G",
"#G#G#G#G#G#G#G#G#G#G#G#Gao.J.J.r.q.J.J#.#G#G#G#G#G#G#G#G#G#G#G#G",
"#G#G#G#G#G#G#G#G#G#G#G#G#G#G.S#m#m.W#4#G#G#G#G#G#G#G#G#G#G#G#G#G",
"#G#G#G#G#G#G#G#G#G#G#G#G#G#G#Gaq.F#G#G#G#G#G#G#G#G#G#G#G#G#G#G#G"
};
