/* XPM */
static char *bitcoin16_xpm[] = {
/* width height num_colors chars_per_pixel */
"    16    16      256            2",
/* colors */
"`` c #ffffff",
"`. c #b5f6b8",
"`# c #b0f6b2",
"`a c #d2f7d9",
"`b c #86e996",
"`c c #a7f7ad",
"`d c #aaf7af",
"`e c #ccf5d2",
"`f c #ebfaef",
"`g c #8ee4a6",
"`h c #82e79b",
"`i c #d7ffda",
"`j c #ddfddf",
"`k c #82e699",
"`l c #89e4a2",
"`m c #e5f9ea",
"`n c #a6e7be",
"`o c #7bdba0",
"`p c #bbf7c9",
"`q c #bff3ce",
"`r c #7cdba2",
"`s c #a7e7c1",
"`t c #fdfefd",
"`u c #9ce1bd",
"`v c #7ed7a9",
"`w c #f9fefa",
"`x c #8f93ce",
"`y c #9dabdc",
"`z c #fbfbfd",
"`A c #80d9a8",
"`B c #99e0b8",
"`C c #8dd8bb",
"`D c #c7f1dc",
"`E c #bbb9e2",
"`F c #5662b0",
"`G c #505faf",
"`H c #6f89c7",
"`I c #748fca",
"`J c #c7c6ef",
"`K c #fdfefe",
"`L c #bcf2c9",
"`M c #7bd79f",
"`N c #9fe1ba",
"`O c #8ad3c0",
"`P c #c5efde",
"`Q c #c5cde5",
"`R c #4e6bae",
"`S c #4e58ad",
"`T c #5059ae",
"`U c #6b7fc6",
"`V c #7086ca",
"`W c #7297c9",
"`X c #97d3c2",
"`Y c #8fe4a9",
"`Z c #71d499",
"`0 c #a1e3bb",
"`1 c #87cdc4",
"`2 c #c3ebe0",
"`3 c #c3cfe4",
"`4 c #4a7cae",
"`5 c #466ca6",
"`6 c #4a5ca8",
"`7 c #7091c1",
"`8 c #7db7c1",
".` c #7ac1c3",
".. c #a3dcca",
".# c #bfeece",
".a c #a4e4bc",
".b c #ace6c2",
".c c #83c8c7",
".d c #c1e7e3",
".e c #c3cee2",
".f c #446da2",
".g c #4b7aaf",
".h c #6395d6",
".i c #8fc7ec",
".j c #86c8cb",
".k c #73b5ba",
".l c #a1d9c4",
".m c #bff0ca",
".n c #ade5ca",
".o c #b4e5d4",
".p c #7fc2cb",
".q c #bee4e5",
".r c #c7d2e5",
".s c #5b8ac7",
".t c #6b9fe5",
".u c #71a6eb",
".v c #92c0fc",
".w c #9ac6ff",
".x c #8ec0e8",
".y c #9ad7c5",
".z c #a0e7b9",
".A c #81d4b8",
".B c #aae1d0",
".C c #7bbcce",
".D c #bcdee5",
".E c #c5d9f8",
".F c #6b9ee2",
".G c #6a9de1",
".H c #9cc8fb",
".I c #98c6fa",
".J c #6da4eb",
".K c #57aace",
".L c #71ccbe",
".M c #8cdab9",
".N c #b2e7ce",
".O c #82bbd6",
".P c #66accd",
".Q c #fbfdfd",
".R c #fcfdfe",
".S c #adc9f0",
".T c #78b1e7",
".U c #549ad2",
".V c #4089c8",
".W c #53a6cf",
".X c #5ab6d2",
".Y c #66bdcb",
".Z c #a9ded5",
".0 c #fefefe",
".1 c #80b7d9",
".2 c #549ecc",
".3 c #aad0e5",
".4 c #e3eef7",
".5 c #89b9dd",
".6 c #5093d1",
".7 c #5aabcf",
".8 c #62bcce",
"#` c #96cfe1",
"#. c #f8fbfd",
"## c #d9e9f4",
"#a c #5e9fd5",
"#b c #4f96d1",
"#c c #c8def0",
"#d c #dae9f5",
"#e c #4d91d1",
"#f c #77b9d7",
"#g c #eaf6f8",
"#h c #b3cfec",
"#i c #4c8fd5",
"#j c #7faee1",
"#k c #84b1e3",
"#l c #4c8fd6",
"#m c #bbd3ef",
"#n c #83aee5",
"#o c #7aa7e4",
"#p c #fbfcfe",
"#q c #000000",
"#r c #000000",
"#s c #000000",
"#t c #000000",
"#u c #000000",
"#v c #000000",
"#w c #000000",
"#x c #000000",
"#y c #000000",
"#z c #000000",
"#A c #000000",
"#B c #000000",
"#C c #000000",
"#D c #000000",
"#E c #000000",
"#F c #000000",
"#G c #000000",
"#H c #000000",
"#I c #000000",
"#J c #000000",
"#K c #000000",
"#L c #000000",
"#M c #000000",
"#N c #000000",
"#O c #000000",
"#P c #000000",
"#Q c #000000",
"#R c #000000",
"#S c #000000",
"#T c #000000",
"#U c #000000",
"#V c #000000",
"#W c #000000",
"#X c #000000",
"#Y c #000000",
"#Z c #000000",
"#0 c #000000",
"#1 c #000000",
"#2 c #000000",
"#3 c #000000",
"#4 c #000000",
"#5 c #000000",
"#6 c #000000",
"#7 c #000000",
"#8 c #000000",
"a` c #000000",
"a. c #000000",
"a# c #000000",
"aa c #000000",
"ab c #000000",
"ac c #000000",
"ad c #000000",
"ae c #000000",
"af c #000000",
"ag c #000000",
"ah c #000000",
"ai c #000000",
"aj c #000000",
"ak c #000000",
"al c #000000",
"am c #000000",
"an c #000000",
"ao c #000000",
"ap c #000000",
"aq c #000000",
"ar c #000000",
"as c #000000",
"at c #000000",
"au c #000000",
"av c #000000",
"aw c #000000",
"ax c #000000",
"ay c #000000",
"az c #000000",
"aA c #000000",
"aB c #000000",
"aC c #000000",
"aD c #000000",
"aE c #000000",
"aF c #000000",
"aG c #000000",
"aH c #000000",
"aI c #000000",
"aJ c #000000",
"aK c #000000",
"aL c #000000",
"aM c #000000",
"aN c #000000",
"aO c #000000",
"aP c #000000",
"aQ c #000000",
"aR c #000000",
"aS c #000000",
"aT c #000000",
"aU c #000000",
"aV c #000000",
"aW c #000000",
"aX c #000000",
"aY c #000000",
"aZ c #000000",
"a0 c #000000",
"a1 c #000000",
"a2 c #000000",
"a3 c #000000",
"a4 c #000000",
"a5 c #000000",
"a6 c #000000",
"a7 c #000000",
"a8 c #000000",
/* pixels */
"```````````````.`#``````````````",
"```````````a`b`c`d`b`e``````````",
"```````f`g`h`i`````j`k`l`m``````",
"`````n`o`p`````````````q`r`s`t``",
"```u`v`w```````x`y`z```````A`B``",
"```C`D`````E`F`G`H`I`J`K`L`M`N``",
"```O`P```Q`R`S`T`U`V`W`X`Y`Z`0``",
"```1`2```3`4`5`6`7`8.`...#.a.b``",
"``.c.d``.e.f.g.h.i.j.k.l.m.n.o``",
"``.p.q``.r.s.t.u.v.w.x.y.z.A.B``",
"``.C.D````.E.F.G.H.I.J.K.L.M.N``",
"``.O.P.Q````.R.S.T.U.V.W.X.Y.Z``",
"``.0.1.2.3``````.4.5.6.7.8#`#.``",
"``````###a#b#c````#d#e#f#g``````",
"``````````#h#i#j#k#l#m``````````",
"``````````````#n#o#p````````````"
};
