/* XPM */
static char *f2e149d401144b8fe3feedc245786ba0[] = {
/* columns rows colors chars-per-pixel */
"16 16 33 1 ",
"  c #C7001D",
". c #C8001C",
"X c #CA0021",
"o c #CD0124",
"O c #CB0F2E",
"+ c #CB1130",
"@ c #C81331",
"# c #C91331",
"$ c #CB1331",
"% c #CB1332",
"& c #CC1333",
"* c #CB1432",
"= c #CC1432",
"- c #CC1433",
"; c #CD1433",
": c #CC1533",
"> c #CD1534",
", c #CE1535",
"< c #CD1635",
"1 c #CE1635",
"2 c #D21132",
"3 c #CD2341",
"4 c #CF2B46",
"5 c #CF2B47",
"6 c #D12541",
"7 c #D03751",
"8 c #D13852",
"9 c #D23954",
"0 c #DFB3BA",
"q c #E2B3BB",
"w c #E1B7BE",
"e c #E1B8BF",
"r c None",
/* pixels */
"rrrrrrrrrrrrrrrr",
"rrrrrrrrrrrrrrrr",
"rrrrrrrrrrrrrrrr",
"rrrrrrrrrrrrrrrr",
"rrrrrrr%%rrrrrrr",
"rrrrrrr&:*rrrrrr",
"rrrrrr:::&rrrrrr",
"rrrrr1:&&:1rrrrr",
"r3974%%::&%4796r",
"rrrrw r*&r.wrrrr",
"rrrr0o2%%OXqrrrr",
"rrrrrrr1*rrrrrrr",
"rrrrrrrrrrrrrrrr",
"rrrrrrrrrrrrrrrr",
"rrrrrrrrrrrrrrrr",
"rrrrrrrrrrrrrrrr"
};
