/* XPM */
static char *bitcoin64_xpm[] = {
/* width height num_colors chars_per_pixel */
"    64    64      256            2",
/* colors */
"`` c #4c5aac",
"`. c #5caec4",
"`# c #b4badc",
"`a c #6cd694",
"`b c #84aee4",
"`c c #3c8ec4",
"`d c #ace6c4",
"`e c #748acc",
"`f c #dcdef4",
"`g c #8cdaac",
"`h c #549acf",
"`i c #64c2b4",
"`j c #84c4c4",
"`k c #aceebc",
"`l c #8cee94",
"`m c #6cb4cc",
"`n c #84c6dc",
"`o c #5c86c4",
"`p c #dcf6e4",
"`q c #8ce2a8",
"`r c #446ea2",
"`s c #b4cef0",
"`t c #649adc",
"`u c #84e69c",
"`v c #c4eed4",
"`w c #f4f6fc",
"`x c #c4deec",
"`y c #749cc4",
"`z c #6cc4c4",
"`A c #9cc2ec",
"`B c #a4b6dc",
"`C c #6cbed4",
"`D c #ccd2ec",
"`E c #7cd6a4",
"`F c #84bec6",
"`G c #4492cc",
"`H c #9cd7c4",
"`I c #64babc",
"`J c #646eb4",
"`K c #54a6c4",
"`L c #dcfae2",
"`M c #949acc",
"`N c #7cdea1",
"`O c #b4e6d4",
"`P c #84d2b7",
"`Q c #9ceab4",
"`R c #bccee4",
"`S c #84baec",
"`T c #5c8ecc",
"`U c #64aad4",
"`V c #c4f7cc",
"`W c #4c63ac",
"`X c #94d6c9",
"`Y c #74aedf",
"`Z c #94cedc",
"`0 c #9ce2bb",
"`1 c #4c7aad",
"`2 c #7caac4",
"`3 c #7ccebf",
"`4 c #64b5bc",
"`5 c #bceacc",
"`6 c #94c2e4",
"`7 c #aceac4",
"`8 c #5c9ad7",
".` c #6cd294",
".. c #b4eec4",
".# c #5cb6cc",
".a c #acc9ec",
".b c #5486c4",
".c c #8cdeaf",
".d c #84cac4",
".e c #7cc6bc",
".f c #9ccafc",
".g c #5492d4",
".h c #ecfaf3",
".i c #9cf2ac",
".j c #acdae4",
".k c #64a2d9",
".l c #d4f2e0",
".m c #f4fef7",
".n c #c4e6ec",
".o c #7cbabf",
".p c #84d6bc",
".q c #84dea4",
".r c #94bae8",
".s c #9ce2c4",
".t c #4c5eac",
".u c #54b0d4",
".v c #b4e6c8",
".w c #7492c4",
".x c #dceaf6",
".y c #4ca2d4",
".z c #7cb2c4",
".A c #6c82cc",
".B c #ecf4fc",
".C c #4c76ac",
".D c #84bad4",
".E c #bcd6ec",
".F c #6c92c4",
".G c #74a6e4",
".H c #94c2f6",
".I c #bceecb",
".J c #bcc6e4",
".K c #6ccab0",
".L c #8cf294",
".M c #4c70ac",
".N c #84ee94",
".O c #cceedc",
".P c #849acc",
".Q c #74cac4",
".R c #9cc6fc",
".S c #dcdaec",
".T c #4c92d4",
".U c #9cdec4",
".V c #64bacd",
".W c #5ca6c4",
".X c #94d1cc",
".Y c #a4eab4",
".Z c #5c96dc",
".0 c #6ca6ec",
".1 c #d4f6dc",
".2 c #5462b4",
".3 c #7cb6dc",
".4 c #547ebc",
".5 c #eceef4",
".6 c #84aae4",
".7 c #5458ac",
".8 c #84b6e1",
"#` c #448acc",
"#. c #6c7dcb",
"## c #9ca2d4",
"#a c #74a2e4",
"#b c #4c8ed4",
"#c c #d4e0f0",
"#d c #d4e6f4",
"#e c #7ccabc",
"#f c #acf6ac",
"#g c #bcead4",
"#h c #e4f2f6",
"#i c #74d0aa",
"#j c #4c8ad8",
"#k c #bcc2e4",
"#l c #748ecc",
"#m c #6c76bc",
"#n c #8ca2d4",
"#o c #446aa4",
"#p c #ccdaec",
"#q c #6ca2e5",
"#r c #7cc2d4",
"#s c #94dabc",
"#t c #8cc4d4",
"#u c #94eaa4",
"#v c #74b6c3",
"#w c #8cc3e8",
"#x c #94e4b1",
"#y c #74bdc4",
"#z c #8cbae4",
"#A c #b4c6dc",
"#B c #7caae4",
"#C c #94dec4",
"#D c #6c8acc",
"#E c #74a2c4",
"#F c #74d6a1",
"#G c #e4fae9",
"#H c #94deb4",
"#I c #8ccaca",
"#J c #7c86c4",
"#K c #6c9de4",
"#L c #fcfafc",
"#M c #a4c6e8",
"#N c #84daa4",
"#O c #c4d0e4",
"#P c #6492d4",
"#Q c #6ca6da",
"#R c #ccf7d2",
"#S c #a4e2bc",
"#T c #b4d7e7",
"#U c #cceaf4",
"#V c #7c96cc",
"#W c #e4eef8",
"#X c #8cbed4",
"#Y c #c4daf4",
"#Z c #9cd2c4",
"#0 c #ace3cc",
"#1 c #8cd8bc",
"#2 c #6cc4b4",
"#3 c #b4f2bc",
"#4 c #8ceaa4",
"#5 c #84e6a4",
"#6 c #74c3c4",
"#7 c #d4d6ec",
"#8 c #b4e2e4",
"a` c #a4cdfc",
"a. c #a4f4ac",
"a# c #84deac",
"aa c #94bef4",
"ab c #5cb2d4",
"ac c #7cb6d4",
"ad c #74a6ec",
"ae c #bceed4",
"af c #a4eabc",
"ag c #8cbef4",
"ah c #e4f6ec",
"ai c #ccdef4",
"aj c #7caedc",
"ak c #b4eaca",
"al c #fcfefc",
"am c #a4e2c7",
"an c #54a2cc",
"ao c #94f29c",
"ap c #a4dec8",
"aq c #6496d8",
"ar c #4c6aac",
"as c #8cdebc",
"at c #545eac",
"au c #7cb6ec",
"av c #84b6ec",
"aw c #d4daec",
"ax c #8ccad4",
"ay c #5cb2c0",
"az c #549ecd",
"aA c #5c8acc",
"aB c #4472a4",
"aC c #b4d2ec",
"aD c #84ea95",
"aE c #c4f2cc",
"aF c #f4faf8",
"aG c #9cc6e4",
"aH c #7cdaa4",
"aI c #64beb4",
"aJ c #54aacc",
"aK c #7ce29c",
"aL c #bcd2ec",
"aM c #4c7ead",
"aN c #7cd2bc",
"aO c #94c6dc",
"aP c #5c9ed4",
"aQ c #5496d4",
"aR c #ecfef0",
"aS c #7cbec3",
"aT c #84dab4",
"aU c #84e29d",
"aV c #94bee4",
"aW c #6c86c6",
"aX c #84bed8",
"aY c #74aadc",
"aZ c #94c6f5",
"a0 c #bcf2cc",
"a1 c #bccae3",
"a2 c #ccf2d9",
"a3 c #4c96d3",
"a4 c #64becc",
"a5 c #5caaca",
"a6 c #a4eeb1",
"a7 c #6caae4",
"a8 c #448ec7",
/* pixels */
"alalalalalalalalalalalalalalalalalalalalalalalalalalalalalalalalalalalalalalalalalalalalalalalalalalalalalalalalalalalalalalalal",
"alalalalalalalalalalalalalalalalalalalalalalalalalalalalalalal#fa..malalalalalalalalalalalalalalalalalalalalalalalalalalalalalal",
"alalalalalalalalalalalalalalalalalalalalalalalalalalalalal#R.L.L.L.L`Valalalalalalalalalalalalalalalalalalalalalalalalalalalalal",
"alalalalalalalalalalalalalalalalalalalalalalalalalalal`Lao`l`l`l`l`l`lao`Lalalalalalalalalalalalalalalalalalalalalalalalalalalal",
"alalalalalalalalalalalalalalalalalalalalalalalalalaRa.`l`l`l`l`l`l`l`l`l`l.iaRalalalalalalalalalalalalalalalalalalalalalalalalal",
"alalalalalalalalalalalalalalalalalalalalalalalal#3.N.N.N.N.NaD`V`VaDaD.N.N.N.N#3alalalalalalalalalalalalalalalalalalalalalalalal",
"alalalalalalalalalalalalalalalalalalalalalal#RaDaDaDaDaDaDa6.halal.ma6aDaDaDaDaDaD`Valalalalalalalalalalalalalalalalalalalalalal",
"alalalalalalalalalalalalalalalalalalalal#G#u`u`u`u`u`u#4`Lalalalalalal#G#u`u`u`u`u`u#u`Lalalalalalalalalalalalalalalalalalalalal",
"alalalalalalalalalalalalalalalalalal.ma6`u`u`u`u`u`uaEalalalalalalalalalal#R`u`u`u`u`u`u.Y.halalalalalalalalalalalalalalalalalal",
"alalalalalalalalalalalalalalalalala0`u`u`u`u`u`u`k.malalalalalalalalalalalalal..`u`u`u`u`u`u..alalalalalalalalalalalalalalalalal",
"alalalalalalalalalalalalalalal.1#5aUaUaUaUaU#x.halalalalalalalalalalalalalalalal.h`QaUaUaUaUaUaUa2alalalalalalalalalalalalalalal",
"alalalalalalalalalalalalal#G#xaKaKaKaKaKaU.1alalalalalalalalalalalalalalalalalalalal`p`qaKaKaKaKaK#xahalalalalalalalalalalalalal",
"alalalalalalalalalalal.maf`N`N`N`N`N`N.Ialalalalalalalalalalalalalalalalalalalalalalalal`v`N`N`N`N`N`NafaFalalalalalalalalalalal",
"alalalalalalalalalal.I`N`N`N`N`N`N#S.malalalalalalalalalalalalalalalalalalalalalalalalalal.m`7`N`N`N`N`N`N.Ialalalalalalalalalal",
"alalalalalalalal.la#`N`N`N`NaH`qahalalalalalalalalalalalalalalalalalalalalalalalalalalalalalal#G#xaH`N`N`N`N.q.lalalalalalalalal",
"alalalalalal.h#xaHaHaHaHaHaHa2alalalalalalalalalalalalalalalalalalalalalalalalalalalalalalalalalal.la#aHaHaHaHaH#x#Galalalalalal",
"alalalalalaeaHaHaHaHaHaHakalalalalalalalalalalalalalalalalalal`Dawalalalalalalalalalalalalalalalalalal`5aHaHaHaHaHaH`5alalalalal",
"alalalalal`0#F#F#F#F`0.halalalalalalalalalalalalalalalalal#L`M.taW`B`walalalalalalalalalalalalalalalalalaFam#F#F`E`E`0alalalalal",
"alalalalal.s#F#F#F.lalalalalalalalalalalalalalalalalalal`#at``.taW#l`e.Jalalalalalalalalalalalalalalalalalala2`E`E`E#Salalalalal",
"alalalalal.U#i#iaTalalalalalalalalalalalalalalalalal#7`J.t.t``.taW#l`e`e#V#calalalalalalalalalalalalalalal.O.c`E`E`E#Salalalalal",
"alalalalal.U#i#i.palalalalalalalalalalalalalalal.5#J.t.t.t.t``.taW#l`e`e`e`e#n.5alalalalalalalalalalal`p`g`E`E`E`E`E#Salalalalal",
"alalalalal.U#i#i.palalalalalalalalalalalalalal##.t.t.t.t.t.t``.taW#l`e`e`e`e`e`e`B#LalalalalalalalaF`0`E`E`E`E`E`E`E#Salalalalal",
"alalalalal`H#i#i`Palalalalalalalalalalalal#k.2.t.t.t.t.t.t.t``.taW#l`e`e`e`e`e`e`e`e#Oalalalalalak`E`E`E`E`E`E`E`E`E#Salalalalal",
"alalalalal`H#i#i`Palalalalalalalalalal.S#m.t.t.t.t.t.t.t.t.t``.taW#l`e`e`e`e`e`e`e`e`e.P`fal#R#N`E`E`E`E`E`E`E`E`E`E#Salalalalal",
"alalalalal`H.K.K`Palalalalalalalalal#O`W.7.7.t.t.t.t.t.t.t.t``.taW#l`e`e`e`e`e`e`e`eaW#.#l#Z#5.`#F`E`E`E`E`E`E`E`E`E#Salalalalal",
"alalalalal`H.K.K`3alalalalalalalalala1`1.M.t.7``.t.t.t.t.t.t``.taW#l`e`e`e`e`e`eaW#.`e`2#yap.I#H#F.``E`E`E`E`E`E`E`E#Salalalalal",
"alalalalal`X#2#2`3alalalalalalalalala1.CaM`1ar``.7.t.t.t.t.t``.taW#l`e`e`e`e`e#.aW#E`j.d#v`H.I#g`d.c#F#F`E`E`E`E`E`E#Salalalalal",
"alalalalal`X#2#2`3alalalalalalalalala1.C.C`1aM.C`W.7.7.t.t.t``.taW#l`e`e`e.A#.`y.o.d`jaS#v`H..`dak`5#S#N.`#F`E`E`E`E#Salalalalal",
"alalalalal`X#2#2#ealalalalalalalalala1.C.C.C.C`1aM.M`W.7``.t``.taW#l`eaW#..w.z.d`jaSaSaS#v`H..`d`d`d`5ak`0`E.``E`E`E#Salalalalal",
"alalalalal.X#2#2#ealalalalalalalalala1.C.C.C.C.C.C`1`1.M.t.7``.taW#l#.#D`2`j.daSaSaSaSaS#v`H..`d`d`d`d.v`5.v#H#F`a`E#Salalalalal",
"alalalalal.X`i`i.ealalalalalalalalala1.C.C.C.C.C.C.C.CaM`1ar````#.`e`y`F.d`FaSaSaSaSaSaS#v`H..`d`d`d`d`d`d.v#g`d`g#F`0alalalalal",
"alalalalal.XaIaI.ealalalalalalalalala1.C.C.C.C.C.C.C.C.C`1aM#o``.F.o.d`jaSaSaSaSaSaSaSaS#v`H..`d`d`d`d`d`d`d`dak`5`d`dalalalalal",
"alalalalal.XaIaI.ealalalalalalalalala1.C.C.C.C.C.C.C.C.CaB#oaMaq#w#I.oaS`FaSaSaSaSaSaSaS#v`H..`d`d`d`d`d`d`d`dakak`d`Oalalalalal",
"alalalalal.X`I`I#6alalalalalalalalala1.C.C.C.C.C.C.C.C`r.C`T#qad.H.R#waSaSaSaSaSaSaSaSaS#v`H..`d`d`d`d`d`dak`5`d#saNamalalalalal",
"alalalalal.X`I`I#6alalalalalalalalala1.C.C.C.C.C.C`raB`o#Kad#K#KagaZ.H.HaXaSaSaSaSaSaSaS#v`H..`d`d`d`d.v`5`d#C.paN.p#0alalalalal",
"alalalalal#I`4`4#yalalalalalalalalala1.C.C.C.CaB`r.4`tad#q#K#K#KagaZ.H.H.H.HaXaSaSaSaSaS#v`H..`d`d`dakak.U.paN.p#1.p#0alalalalal",
"alalalalal#I`4`4#yalalalalalalalalala1.C.C.M`r`1#Pad.0#K#K#K#K#KagaZ.H.H.H.H.H#w`FaSaS`F#v`H..`dakakam#1aN.p#1.p.p.p#0alalalalal",
"alalalalalax`4`4#yalalalalalalalalal`R.C`r.CaA#qad#K#K#K#K#K#K#KagaZ.H.H.H.H.H.H.H#waSaS#v`H.I`5`d#saN`P#1.p.p.p.p.p#0alalalalal",
"alalalalalaxayay#yalalalalalalalalal#AaB.b#Kad#K#K#K#K#K#K#K#K#KagaZ.H.H.H.H.H.H.H.H.HaX#vapa0.U.paN.p#1.p.p.p.p.p.p#0alalalalal",
"alalalalal#tayay#yalalalalalalalalal#paqad#q#K#K#K#K#K#K#K#K#K#KagaZ.H.H.H.H.H.H.H.H.Ha`aa#I#x.p.p#1.p.p.p.p.p.p.p.p#0alalalalal",
"alalalalal#t`.`.`malalalalalalalalalal#W`b#K#K#K#K#K#K#K#K#K#K#KagaZ.H.H.H.H.H.H.H.Ra``S`8.y`z.p#H#1.p.p.p.p.p.p.p.p#0alalalalal",
"alalalalal#t`.`.`malalalalalalalalalalalalai#a#K#K#K#K#K#K#K#K#KagaZ.H.H.H.H.H.Ha`.H#Q`G#`aJ.#.##6#1#H#1.p.p.p.p.p.p#0alalalalal",
"alalalalal#ta5a5`malalalalalalalalalalalalalal`s#K#K#K#K#K#K#K#KagaZ.H.H.H.Ha`.R`Ya3a8a3.Ta5a4.#.u.V`3.cas.p.p.p.p.p#0alalalalal",
"alalalalal#ta5a5`malalalalalalalalalalalalalalal`w.r#K#K#K#K#K#KagaZ.H.H.f.fav`h`c.T`haQ.Ta5a4.#.Vab.ua4`P#H#1.p.p.p#0alalalalal",
"alalalalal#X.W.W`malalalalalalalalalalalalalalalalal.x.6#K#K#K#KagaZ.Ra`ag.ka8`G`haQaQaQ.Ta5a4.#.#.#.#.uab`z.p#H#1.p#0alalalalal",
"alalalalalaX`K`K`K`xalalalalalalalalalalalalalalalalalal#Y#q#K#K.Ha`.Ha7`Ga8aQ`haQaQaQaQ.Ta5a4.#.#.#.#.V.#.u.#.Q#1#H#0alalalalal",
"alalalalal.Dananananac#halalalalalalalalalalalalalalalalalal.a#q.Haua3a8a3`haQaQaQaQaQaQ.Ta5a4.#.#.#.#.#.#.V.#.u.V`3`dalalalalal",
"alalalalal#TananananananaO#Lalalalalalalalalalalalalalalalalal.B.8a8.T`haQaQaQaQaQaQaQaQ.Ta5a4.#.#.#.#.#.#.#.#.Vabab#8alalalalal",
"alalalalalal.Bacanananananan#Talalalalalalalalalalalalalalalalalal#d.kaQaQaQaQaQaQaQaQaQ.Ta5a4.#.#.#.#.#.#.#.#.#`n#halalalalalal",
"alalalalalalalal#d`Uazazazazaz`U#dalalalalalalalalalalalalalalalalalalaC`haQaQaQaQaQaQaQ.Ta5a4.#.#.#.#.#.#.#`C#Ualalalalalalalal",
"alalalalalalalalalalaCazazazazazaz.3.Balalalalalalalalalalalalalalalalal#LaVaQaQaQaQaQaQ.Ta5a4.#.#.#.#.#.##Talalalalalalalalalal",
"alalalalalalalalalalal#L`6`h`h`h`h`h`haGalalalalalalalalalalalalalalalalalal#W`YaQaQaQaQ.Ta5a4.#.#.#.#`ZaFalalalalalalalalalalal",
"alalalalalalalalalalalalal#W`Y`h`h`h`h`haz.Ealalalalalalalalalalalalalalalalalal#haYaQaQ.Ta5a4.#.##r#halalalalalalalalalalalalal",
"alalalalalalalalalalalalalalalaiaPa3a3a3a3a3#Q.xalalalalalalalalalalalalalalalalalajaQaQ.Ta5a4.V.nalalalalalalalalalalalalalalal",
"alalalalalalalalalalalalalalalalal.aa3a3a3a3a3a3.8.BalalalalalalalalalalalalaF#za3a3a3a3.Ta5.jalalalalalalalalalalalalalalalalal",
"alalalalalalalalalalalalalalalalalal`w.8.T.T.T.Ta3a3#Malalalalalalalalalal.aa3a3.T.T.T.Taj.Balalalalalalalalalalalalalalalalalal",
"alalalalalalalalalalalalalalalalalalalal.x#Q.T.T.T.T.T`8#Yalalalalalalai`8.T.T.T.T.T.k#dalalalalalalalalalalalalalalalalalalalal",
"alalalalalalalalalalalalalalalalalalalalalal.EaQ.T.T.T.T.T#Q.xalal#WaY.T.T.T.T.T.gaLalalalalalalalalalalalalalalalalalalalalalal",
"alalalalalalalalalalalalalalalalalalalalalalalal`A#b#b#b#b#b#b`A#M#b#b#b#b#b#b.ralalalalalalalalalalalalalalalalalalalalalalalal",
"alalalalalalalalalalalalalalalalalalalalalalalalal.B#B#j#j#j#j#j#b#j#j#j#j.G.Balalalalalalalalalalalalalalalalalalalalalalalalal",
"alalalalalalalalalalalalalalalalalalalalalalalalalalal#c`t#j#j#j#j#j#j.Zaialalalalalalalalalalalalalalalalalalalalalalalalalalal",
"alalalalalalalalalalalalalalalalalalalalalalalalalalalalal`s#j#j#j#j.aalalalalalalalalalalalalalalalalalalalalalalalalalalalalal",
"alalalalalalalalalalalalalalalalalalalalalalalalalalalalalal#L`b#BaFalalalalalalalalalalalalalalalalalalalalalalalalalalalalalal",
"alalalalalalalalalalalalalalalalalalalalalalalalalalalalalalalalalalalalalalalalalalalalalalalalalalalalalalalalalalalalalalalal"
};
